<svg width="123" height="26" viewBox="0 0 123 26" fill="none" xmlns="http://www.w3.org/2000/svg">
<path d="M25 12.5C25 19.4036 19.4036 25 12.5 25C5.59644 25 0 19.4036 0 12.5C0 5.59644 5.59644 0 12.5 0C19.4036 0 25 5.59644 25 12.5Z" fill="#FF0000"/>
<path d="M73.5 13C73.5 19.9036 67.9036 25.5 61 25.5C54.0964 25.5 48.5 19.9036 48.5 13C48.5 6.09644 54.0964 0.5 61 0.5C67.9036 0.5 73.5 6.09644 73.5 13Z" fill="#FFFF00"/>
<path d="M122.5 13C122.5 19.9036 116.904 25.5 110 25.5C103.096 25.5 97.5 19.9036 97.5 13C97.5 6.09644 103.096 0.5 110 0.5C116.904 0.5 122.5 6.09644 122.5 13Z" fill="#008000"/>
</svg>
