<svg width="50" height="50" viewBox="0 0 50 50" fill="none" xmlns="http://www.w3.org/2000/svg">
<path d="M42.5 0H7.5C5.51088 0 3.60322 0.987721 2.1967 2.74587C0.790177 4.50403 0 6.8886 0 9.375V40.625C0 43.1114 0.790177 45.496 2.1967 47.2541C3.60322 49.0123 5.51088 50 7.5 50H42.5C44.4891 50 46.3968 49.0123 47.8033 47.2541C49.2098 45.496 50 43.1114 50 40.625V9.375C50 6.8886 49.2098 4.50403 47.8033 2.74587C46.3968 0.987721 44.4891 0 42.5 0ZM41.475 6.25L26.775 24.625C26.5426 24.9179 26.2661 25.1504 25.9614 25.309C25.6568 25.4677 25.33 25.5494 25 25.5494C24.67 25.5494 24.3432 25.4677 24.0386 25.309C23.7339 25.1504 23.4574 24.9179 23.225 24.625L8.525 6.25H41.475ZM45 40.625C45 41.4538 44.7366 42.2487 44.2678 42.8347C43.7989 43.4208 43.163 43.75 42.5 43.75H7.5C6.83696 43.75 6.20107 43.4208 5.73223 42.8347C5.26339 42.2487 5 41.4538 5 40.625V10.6562L19.7 29.0312C21.1063 30.7869 23.0125 31.773 25 31.773C26.9875 31.773 28.8937 30.7869 30.3 29.0312L45 10.6562V40.625Z" fill="#9788ca"/>
</svg>
