<svg width="64" height="64" viewBox="0 0 64 64" fill="none" xmlns="http://www.w3.org/2000/svg">
<path d="M59.2787 0.000242359H4.72131C3.48344 -0.0123555 2.29113 0.466623 1.406 1.33208C0.52087 2.19753 0.015219 3.37877 0 4.6166V59.3939C0.0179713 60.6299 0.524832 61.8084 1.40966 62.6716C2.29449 63.5348 3.48524 64.0124 4.72131 63.9998H59.2787C60.5166 64.0096 61.7081 63.529 62.5928 62.663C63.4775 61.797 63.9834 60.616 64 59.3782V4.60086C63.9779 3.36666 63.4696 2.19106 62.5855 1.32957C61.7014 0.468092 60.5131 -0.00963122 59.2787 0.000242359Z" fill="#0076B2"/>
<path d="M9.4741 23.9895H18.9744V54.5572H9.4741V23.9895ZM14.2269 8.77655C15.3165 8.77655 16.3817 9.09973 17.2876 9.70521C18.1936 10.3107 18.8996 11.1712 19.3163 12.178C19.733 13.1848 19.8418 14.2926 19.6289 15.3612C19.4159 16.4298 18.8908 17.4113 18.1199 18.1814C17.3491 18.9515 16.3671 19.4757 15.2983 19.6877C14.2294 19.8996 13.1218 19.7898 12.1154 19.3721C11.109 18.9544 10.2491 18.2476 9.64444 17.3411C9.03982 16.4346 8.71765 15.3691 8.71869 14.2795C8.72008 12.8195 9.30102 11.4198 10.3339 10.388C11.3667 9.35615 12.7669 8.77655 14.2269 8.77655ZM24.9338 23.9895H34.0407V28.1862H34.1666C35.4361 25.7836 38.5312 23.2499 43.1528 23.2499C52.7738 23.2289 54.5574 29.5607 54.5574 37.7704V54.5572H45.0571V39.6852C45.0571 36.1442 44.9941 31.5856 40.1207 31.5856C35.2472 31.5856 34.4184 35.4465 34.4184 39.4544V54.5572H24.9338V23.9895Z" fill="white"/>
</svg>
